<svg xmlns="http://www.w3.org/2000/svg" version="1.1" xmlns:xlink="http://www.w3.org/1999/xlink" xmlns:svgjs="http://svgjs.dev/svgjs" width="1500" height="1500" viewBox="0 0 1500 1500"><rect width="1500" height="1500" fill="#0a1627"></rect><g transform="matrix(0.6666666666666666,0,0,0.6666666666666666,249.39393939393938,438.5856950067477)"><svg viewBox="0 0 396 247" data-background-color="#0a1627" preserveAspectRatio="xMidYMid meet" height="935" width="1500" xmlns="http://www.w3.org/2000/svg" xmlns:xlink="http://www.w3.org/1999/xlink"><g id="tight-bounds" transform="matrix(1,0,0,1,0.2400000000000091,-0.09999999999999432)"><svg viewBox="0 0 395.52 247.2" height="247.2" width="395.52"><g><svg></svg></g><g><svg viewBox="0 0 395.52 247.2" height="247.2" width="395.52"><g transform="matrix(1,0,0,1,75.54432,56.415618984329086)"><svg viewBox="0 0 244.43135999999998 134.36876203134182" height="134.36876203134182" width="244.43135999999998"><g><svg viewBox="0 0 244.43135999999998 134.36876203134182" height="134.36876203134182" width="244.43135999999998"><g><svg viewBox="0 0 244.43135999999998 134.36876203134182" height="134.36876203134182" width="244.43135999999998"><g><svg viewBox="0 0 244.43135999999998 134.36876203134182" height="134.36876203134182" width="244.43135999999998"><g id="textblocktransform"><svg viewBox="0 0 244.43135999999998 134.36876203134182" height="134.36876203134182" width="244.43135999999998" id="textblock"><g><svg viewBox="0 0 244.43135999999998 90.65004079470198" height="90.65004079470198" width="244.43135999999998"><g transform="matrix(1,0,0,1,0,0)"><svg width="244.43135999999998" viewBox="1.3 -35.7 98.15 36.400000000000006" height="90.65004079470198" data-palette-color="#fe0039"><path d="M4.95 0L1.3 0 14.75-35 17.85-35 31.3 0 27.65 0 21.45-16.4 10.1-16.4 4.95 0ZM15.4-32.4L15.1-32.4 10.45-17.6 21-17.6 15.4-32.4ZM47.5 0L43.9 0 43.9-14.8 31.5-35 35.3-35 46.45-16.7 46.75-16.7 55.65-35 59.45-35 47.5-15.5 47.5 0ZM63.05-17.5L63.05-17.5Q63.05-21.35 64.42-24.68 65.8-28 68.27-30.48 70.75-32.95 74.07-34.33 77.4-35.7 81.25-35.7L81.25-35.7Q85.09-35.7 88.42-34.33 91.75-32.95 94.22-30.48 96.69-28 98.07-24.68 99.45-21.35 99.45-17.5L99.45-17.5Q99.45-13.65 98.07-10.33 96.69-7 94.22-4.53 91.75-2.05 88.42-0.68 85.09 0.7 81.25 0.7L81.25 0.7Q77.4 0.7 74.07-0.68 70.75-2.05 68.27-4.53 65.8-7 64.42-10.33 63.05-13.65 63.05-17.5ZM66.84-17.5L66.84-17.5Q66.84-12.4 68.65-8.58 70.45-4.75 73.7-2.63 76.95-0.5 81.25-0.5L81.25-0.5Q85.55-0.5 88.8-2.63 92.05-4.75 93.84-8.6 95.65-12.45 95.65-17.5L95.65-17.5Q95.65-22.55 93.84-26.38 92.05-30.2 88.8-32.35 85.55-34.5 81.25-34.5L81.25-34.5Q76.95-34.5 73.72-32.38 70.5-30.25 68.67-26.43 66.84-22.6 66.84-17.5Z" opacity="1" transform="matrix(1,0,0,1,0,0)" fill="#fe0039" class="wordmark-text-0" data-fill-palette-color="primary" id="text-0"></path></svg></g></svg></g><g transform="matrix(1,0,0,1,0,112.05033982535204)"><svg viewBox="0 0 244.43135999999998 22.318422205989773" height="22.318422205989773" width="244.43135999999998"><g transform="matrix(1,0,0,1,0,0)"><svg width="244.43135999999998" viewBox="2.55 -37.5 551.1400000000001 50" height="22.318422205989773" data-palette-color="#c1c1c1"><path d="M16.25-0.55L16.25-0.55Q18.75-0.55 20.68-1.9 22.6-3.25 22.6-5.98 22.6-8.7 20.53-10.15 18.45-11.6 14.63-12.68 10.8-13.75 9.08-14.55 7.35-15.35 5.8-16.65L5.8-16.65Q2.7-19.25 2.7-24.7L2.7-24.7Q2.7-29.15 5.88-32.35 9.05-35.55 14.55-35.55L14.55-35.55Q17.2-35.55 20.08-34.77 22.95-34 23.65-34 24.35-34 24.9-35L24.9-35 25.45-35 25.8-24.9 25-24.9Q22.6-29.25 19.98-31.88 17.35-34.5 14.28-34.5 11.2-34.5 9.5-33.08 7.8-31.65 7.8-29.28 7.8-26.9 9.83-25.63 11.85-24.35 14.8-23.55 17.75-22.75 18.68-22.45 19.6-22.15 20.98-21.63 22.35-21.1 23.23-20.53 24.1-19.95 25.08-19.07 26.05-18.2 26.6-17.15L26.6-17.15Q27.95-14.75 27.95-11.45L27.95-11.45Q27.95-6.05 24.58-2.78 21.2 0.5 15.7 0.5L15.7 0.5Q12.85 0.5 9.18-0.25 5.5-1 5.1-1L5.1-1Q4.4-1 3.75 0.5L3.75 0.5 3.05 0.5 2.55-11.4 3.4-11.4Q5.6-7.05 9.03-3.8 12.45-0.55 16.25-0.55ZM30.5-36.6L30.5-37.5 42.55-37.5 42.55-19.2Q43.35-21.5 45-22.9 46.65-24.3 50-24.3L50-24.3Q57.75-24.3 57.75-15.95L57.75-15.95 57.75-0.9 60.55-0.9 60.55 0 46.4 0 46.4-0.9 48.45-0.9 48.45-17.15Q48.45-20.15 48.05-21.03 47.65-21.9 46.6-21.9L46.6-21.9Q45-21.9 43.77-19.8 42.55-17.7 42.55-14.7L42.55-14.7 42.55-0.9 44.7-0.9 44.7 0 30.5 0 30.5-0.9 33.25-0.9 33.25-36.6 30.5-36.6ZM77.45-9.85L77.45-9.85 77.45-14.1Q77.45-18.95 76.92-21.18 76.4-23.4 74.5-23.4L74.5-23.4Q73.4-23.4 72.72-22.78 72.05-22.15 71.75-20.7L71.75-20.7Q71.3-18.45 71.3-13.85L71.3-13.85 71.3-9.95Q71.3-4.5 71.62-3.4 71.95-2.3 72.3-1.6L72.3-1.6Q72.84-0.4 74.45-0.4L74.45-0.4Q76.4-0.4 77-2.65L77-2.65Q77.45-4.25 77.45-9.85ZM74.34 0.5Q68.09 0.5 64.89-2.7 61.7-5.9 61.7-11.88 61.7-17.85 65.12-21.08 68.55-24.3 74.75-24.3 80.95-24.3 84-21.33 87.05-18.35 87.05-12.25L87.05-12.25Q87.05 0.5 74.34 0.5L74.34 0.5ZM106.69-13.45Q106.69-18.6 106.19-20.38 105.69-22.15 104.24-22.15 102.79-22.15 101.64-20.28 100.49-18.4 100.49-15.25L100.49-15.25 100.49-6.1Q100.49-3.95 101.34-2.45 102.19-0.95 103.84-0.95 105.49-0.95 106.09-3.15 106.69-5.35 106.69-10.85L106.69-10.85 106.69-13.45ZM88.54-23.8L100.39-23.8 100.39-19.85Q102.34-24.3 107.29-24.3L107.29-24.3Q111.59-24.3 113.97-21.2 116.34-18.1 116.34-11.8 116.34-5.5 113.77-2.5 111.19 0.5 106.04 0.5L106.04 0.5Q103.64 0.5 102.44-0.1 101.24-0.7 100.49-1.95L100.49-1.95 100.49 11 106.94 11 106.94 11.9 88.44 11.9 88.44 11 91.19 11 91.19-22.9 88.54-22.9 88.54-23.8ZM127.39-34.05L127.39-35 142.99-35 142.99-34.05 140.09-34.05 140.09-18.55 150.04-18.55 150.04-34.05 147.09-34.05 147.09-35 162.74-35 162.74-34.05 159.79-34.05 159.79-0.95 162.74-0.95 162.74 0 147.09 0 147.09-0.95 150.04-0.95 150.04-17.25 140.09-17.25 140.09-0.95 142.99-0.95 142.99 0 127.39 0 127.39-0.95 130.34-0.95 130.34-34.05 127.39-34.05ZM176.29-11.75L176.29-11.75 177.74-11.75 177.74-15.6Q177.74-20.35 177.21-21.98 176.69-23.6 175.19-23.6L175.19-23.6Q174.29-23.6 173.56-23.13 172.84-22.65 172.84-21.83 172.84-21 173.14-20.15L173.14-20.15 174.39-20.15Q174.79-19.1 174.79-17.63 174.79-16.15 173.54-15.08 172.29-14 170.39-14L170.39-14Q166.09-14 166.09-18.15L166.09-18.15Q166.09-24.3 176.54-24.3L176.54-24.3Q182.49-24.3 184.76-22.28 187.04-20.25 187.04-14.85L187.04-14.85 187.04-4.7Q187.04-2.1 188.49-2.1L188.49-2.1Q190.19-2.1 190.49-7.25L190.49-7.25 191.24-7.2Q191.04-2.8 189.59-1.15 188.14 0.5 184.84 0.5L184.84 0.5Q178.84 0.5 177.94-3.2L177.94-3.2Q177.29-1.3 175.99-0.4 174.69 0.5 172.19 0.5L172.19 0.5Q164.79 0.5 164.79-5.55L164.79-5.55Q164.79-9.1 167.61-10.43 170.44-11.75 176.29-11.75ZM174.29-5.6Q174.29-3 174.56-2.25 174.84-1.5 175.61-1.5 176.39-1.5 177.06-2.78 177.74-4.05 177.74-6.3L177.74-6.3 177.74-10.95 177.39-10.95Q174.29-10.95 174.29-6.4L174.29-6.4 174.29-5.6ZM209.48-13.45Q209.48-18.6 208.98-20.38 208.48-22.15 207.03-22.15 205.58-22.15 204.43-20.28 203.28-18.4 203.28-15.25L203.28-15.25 203.28-6.1Q203.28-3.95 204.13-2.45 204.98-0.95 206.63-0.95 208.28-0.95 208.88-3.15 209.48-5.35 209.48-10.85L209.48-10.85 209.48-13.45ZM191.33-23.8L203.18-23.8 203.18-19.85Q205.13-24.3 210.08-24.3L210.08-24.3Q214.38-24.3 216.76-21.2 219.13-18.1 219.13-11.8 219.13-5.5 216.56-2.5 213.98 0.5 208.83 0.5L208.83 0.5Q206.43 0.5 205.23-0.1 204.03-0.7 203.28-1.95L203.28-1.95 203.28 11 209.73 11 209.73 11.9 191.23 11.9 191.23 11 193.98 11 193.98-22.9 191.33-22.9 191.33-23.8ZM238.88-13.45Q238.88-18.6 238.38-20.38 237.88-22.15 236.43-22.15 234.98-22.15 233.83-20.28 232.68-18.4 232.68-15.25L232.68-15.25 232.68-6.1Q232.68-3.95 233.53-2.45 234.38-0.95 236.03-0.95 237.68-0.95 238.28-3.15 238.88-5.35 238.88-10.85L238.88-10.85 238.88-13.45ZM220.73-23.8L232.58-23.8 232.58-19.85Q234.53-24.3 239.48-24.3L239.48-24.3Q243.78-24.3 246.16-21.2 248.53-18.1 248.53-11.8 248.53-5.5 245.96-2.5 243.38 0.5 238.23 0.5L238.23 0.5Q235.83 0.5 234.63-0.1 233.43-0.7 232.68-1.95L232.68-1.95 232.68 11 239.13 11 239.13 11.9 220.63 11.9 220.63 11 223.38 11 223.38-22.9 220.73-22.9 220.73-23.8ZM250.83-22.9L248.78-22.9 248.78-23.8 263.28-23.8 263.28-22.9 260.58-22.9 266.03-6.3 271.83-22.9 268.48-22.9 268.48-23.8 275.53-23.8 275.53-22.9 273.03-22.9 263.68 4.05Q262.03 8.75 259.98 10.63 257.93 12.5 254.98 12.5 252.03 12.5 250.33 11.15 248.63 9.8 248.63 7.7 248.63 5.6 249.73 4.5 250.83 3.4 252.63 3.4L252.63 3.4Q256.78 3.4 256.78 6.85L256.78 6.85Q256.78 7.6 256.48 8.65L256.48 8.65 254.73 8.65Q254.33 9.8 254.63 10.55 254.93 11.3 255.98 11.3L255.98 11.3Q258.03 11.3 259.63 9.28 261.23 7.25 262.68 3.1L262.68 3.1 263.78 0 259.38 0 250.83-22.9ZM275.93 7.8L275.93 7.8 275.33 7.05Q278.43 4.4 279.38 2.93 280.33 1.45 280.33-0.33 280.33-2.1 278.78-2.3L278.78-2.3 276.38-0.15Q275.23-0.55 274.3-1.58 273.38-2.6 273.38-4.23 273.38-5.85 274.55-7 275.73-8.15 277.8-8.15 279.88-8.15 281.18-6.55 282.48-4.95 282.48-2.3 282.48 0.35 280.93 2.8 279.38 5.25 275.93 7.8ZM294.77-33.9L294.77-35 312.77-35 312.77-33.9 307.47-33.9 307.47-1.1 309.27-1.1Q313.52-1.1 316.05-3.7 318.57-6.3 321.17-11.7L321.17-11.7 322.22-11.7 321.27 0 294.77 0 294.77-1.1 297.72-1.1 297.72-33.9 294.77-33.9ZM331.37-27.25Q328.72-27.25 327.59-28.6 326.47-29.95 326.47-31.95 326.47-33.95 327.69-35.25 328.92-36.55 331.42-36.55 333.92-36.55 335.22-35.38 336.52-34.2 336.52-32.02 336.52-29.85 335.27-28.55 334.02-27.25 331.37-27.25ZM323.82-22.9L323.82-23.8 336.07-23.8 336.07-0.9 338.87-0.9 338.87 0 324.02 0 324.02-0.9 326.77-0.9 326.77-22.9 323.82-22.9ZM339.92-22.9L337.87-22.9 337.87-23.8 352.82-23.8 352.82-22.9 349.67-22.9 355.67-6.3 361.07-22.9 357.72-22.9 357.72-23.8 364.47-23.8 364.47-22.9 362.27-22.9 354.87 0 349.17 0 339.92-22.9ZM376.86 0.5Q370.41 0.5 367.19-2.83 363.96-6.15 363.96-12.08 363.96-18 367.59-21.15 371.21-24.3 376.81-24.3L376.81-24.3Q388.16-24.3 387.71-12.9L387.71-12.9 373.61-12.9 373.61-10.95Q373.61-6.05 374.86-3.55 376.11-1.05 379.21-1.05L379.21-1.05Q385.01-1.05 386.81-7.25L386.81-7.25 387.71-7.1Q386.76-3.5 384.29-1.5 381.81 0.5 376.86 0.5L376.86 0.5ZM373.66-16.35L373.66-13.9 378.81-13.9 378.81-16.35Q378.81-20.4 378.34-21.88 377.86-23.35 376.44-23.35 375.01-23.35 374.34-21.78 373.66-20.2 373.66-16.35L373.66-16.35ZM399.06-34.05L399.06-35 414.01-35Q420.96-35 424.43-33.13 427.91-31.25 427.91-26.8L427.91-26.8Q427.91-19.95 419.66-18.6L419.66-18.6 419.66-18.5Q429.66-17.25 429.66-9.8L429.66-9.8Q429.66-4.35 425.56-2.18 421.46 0 413.76 0L413.76 0 399.06 0 399.06-0.95 402.31-0.95 402.31-34.05 399.06-34.05ZM413.21-17.7L412.06-17.7 412.06-0.95 414.41-0.95Q417.16-0.95 418.26-2.85 419.36-4.75 419.36-8.45L419.36-8.45 419.36-11.1Q419.36-14.4 418.01-16.05 416.66-17.7 413.21-17.7L413.21-17.7ZM413.66-34.05L412.06-34.05 412.06-18.65 413.36-18.65Q415.96-18.65 416.98-20.23 418.01-21.8 418.01-25.05L418.01-25.05 418.01-27.4Q418.01-31.1 417.11-32.58 416.21-34.05 413.66-34.05L413.66-34.05ZM444.61 0.5Q438.16 0.5 434.93-2.83 431.71-6.15 431.71-12.08 431.71-18 435.33-21.15 438.96-24.3 444.56-24.3L444.56-24.3Q455.91-24.3 455.46-12.9L455.46-12.9 441.36-12.9 441.36-10.95Q441.36-6.05 442.61-3.55 443.86-1.05 446.96-1.05L446.96-1.05Q452.76-1.05 454.56-7.25L454.56-7.25 455.46-7.1Q454.51-3.5 452.03-1.5 449.56 0.5 444.61 0.5L444.61 0.5ZM441.41-16.35L441.41-13.9 446.56-13.9 446.56-16.35Q446.56-20.4 446.08-21.88 445.61-23.35 444.18-23.35 442.76-23.35 442.08-21.78 441.41-20.2 441.41-16.35L441.41-16.35ZM459.75-7.15L459.75-7.15 459.75-22.9 457-22.9 457-23.8 459.75-23.8 459.75-30.25 469.05-32.55 469.05-23.8 475.55-23.8 475.55-22.9 469.05-22.9 469.05-6.05Q469.05-3.7 469.53-2.6 470-1.5 471.5-1.5 473-1.5 474.13-3 475.25-4.5 475.6-7.1L475.6-7.1 476.45-7Q476.05-3.55 474.25-1.53 472.45 0.5 468.3 0.5 464.15 0.5 461.95-1.15 459.75-2.8 459.75-7.15ZM479.45-7.15L479.45-7.15 479.45-22.9 476.7-22.9 476.7-23.8 479.45-23.8 479.45-30.25 488.75-32.55 488.75-23.8 495.25-23.8 495.25-22.9 488.75-22.9 488.75-6.05Q488.75-3.7 489.23-2.6 489.7-1.5 491.2-1.5 492.7-1.5 493.83-3 494.95-4.5 495.3-7.1L495.3-7.1 496.15-7Q495.75-3.55 493.95-1.53 492.15 0.5 488 0.5 483.85 0.5 481.65-1.15 479.45-2.8 479.45-7.15ZM509.8 0.5Q503.35 0.5 500.12-2.83 496.9-6.15 496.9-12.08 496.9-18 500.52-21.15 504.15-24.3 509.75-24.3L509.75-24.3Q521.1-24.3 520.65-12.9L520.65-12.9 506.55-12.9 506.55-10.95Q506.55-6.05 507.8-3.55 509.05-1.05 512.15-1.05L512.15-1.05Q517.95-1.05 519.75-7.25L519.75-7.25 520.65-7.1Q519.7-3.5 517.22-1.5 514.75 0.5 509.8 0.5L509.8 0.5ZM506.6-16.35L506.6-13.9 511.75-13.9 511.75-16.35Q511.75-20.4 511.27-21.88 510.8-23.35 509.37-23.35 507.95-23.35 507.27-21.78 506.6-20.2 506.6-16.35L506.6-16.35ZM539.15-22.4L539.15-22.4Q537.3-22.4 535.9-20 534.5-17.6 534.5-14.3L534.5-14.3 534.5-0.9 538.05-0.9 538.05 0 522.45 0 522.45-0.9 525.2-0.9 525.2-22.9 522.45-22.9 522.45-23.8 534.5-23.8 534.5-19Q535.15-21.55 537-22.93 538.85-24.3 541.2-24.3 543.55-24.3 545.02-22.98 546.5-21.65 546.5-19.23 546.5-16.8 545.4-15.5 544.3-14.2 542.02-14.2 539.75-14.2 538.67-15.7 537.6-17.2 538.4-19.85L538.4-19.85 540.2-19.85Q541.45-22.4 539.15-22.4ZM549.27 0.5Q547.09 0.5 546.02-0.78 544.94-2.05 544.94-3.88 544.94-5.7 546.07-6.95 547.19-8.2 549.24-8.2 551.29-8.2 552.49-7.15 553.69-6.1 553.69-4 553.69-1.9 552.57-0.7 551.44 0.5 549.27 0.5Z" opacity="1" transform="matrix(1,0,0,1,0,0)" fill="#c1c1c1" class="slogan-text-1" data-fill-palette-color="secondary" id="text-1"></path></svg></g></svg></g></svg></g></svg></g></svg></g></svg></g></svg></g><path d="M145.012 50.416L145.012 0 392.212 0 392.212 247.2 145.012 247.2 145.012 196.784 153.187 196.784 153.187 239.025 384.037 239.025 384.037 8.175 153.187 8.175 153.187 50.416Z" fill="#fe0039" stroke="transparent" data-fill-palette-color="tertiary"></path></svg></g><defs></defs></svg><rect width="395.52" height="247.2" fill="none" stroke="none" visibility="hidden"></rect></g></svg></g></svg>